<svg width="57" height="42" viewBox="0 0 57 42" fill="none" xmlns="http://www.w3.org/2000/svg">
<g filter="url(#filter0_d_2_51)">
<mask id="path-1-outside-1_2_51" maskUnits="userSpaceOnUse" x="6.90323" y="5" width="43" height="26" fill="black">
<rect fill="white" x="6.90323" y="5" width="43" height="26"/>
<path d="M9.92543 28V8.49032H16.5866C18.872 8.49032 20.7487 8.8991 22.2165 9.71664C23.703 10.5156 24.7992 11.649 25.5053 13.1169C26.2299 14.5662 26.5923 16.2756 26.5923 18.2452C26.5923 20.2147 26.2299 21.9334 25.5053 23.4013C24.7992 24.8506 23.703 25.984 22.2165 26.8015C20.7487 27.6005 18.872 28 16.5866 28H9.92543ZM13.4929 24.9342H16.4194C18.0545 24.9342 19.3458 24.6741 20.2934 24.1538C21.241 23.615 21.9192 22.8532 22.328 21.8684C22.7368 20.865 22.9412 19.6573 22.9412 18.2452C22.9412 16.8516 22.7368 15.6532 22.328 14.6498C21.9192 13.6465 21.241 12.8754 20.2934 12.3365C19.3458 11.7977 18.0545 11.5283 16.4194 11.5283H13.4929V24.9342ZM37.7668 28.3345C35.8158 28.3345 34.1064 27.9071 32.6385 27.0524C31.1892 26.1977 30.0465 25.0178 29.2104 23.5128C28.3928 21.9892 27.9841 20.2333 27.9841 18.2452C27.9841 16.257 28.3928 14.5105 29.2104 13.0054C30.0465 11.4818 31.1892 10.2926 32.6385 9.43794C34.1064 8.58323 35.8158 8.15587 37.7668 8.15587C39.6992 8.15587 41.3993 8.58323 42.8672 9.43794C44.335 10.2926 45.4778 11.4818 46.2953 13.0054C47.1129 14.5105 47.5216 16.257 47.5216 18.2452C47.5216 20.2333 47.1129 21.9892 46.2953 23.5128C45.4778 25.0178 44.335 26.1977 42.8672 27.0524C41.3993 27.9071 39.6992 28.3345 37.7668 28.3345ZM37.7668 25.1293C39.6248 25.1293 41.102 24.5161 42.1983 23.2898C43.3131 22.0635 43.8705 20.3819 43.8705 18.2452C43.8705 16.1084 43.3131 14.4268 42.1983 13.2005C41.102 11.9742 39.6248 11.361 37.7668 11.361C35.9087 11.361 34.4223 11.9742 33.3074 13.2005C32.1926 14.4268 31.6352 16.1084 31.6352 18.2452C31.6352 20.3819 32.1926 22.0635 33.3074 23.2898C34.4223 24.5161 35.9087 25.1293 37.7668 25.1293Z"/>
</mask>
<path d="M9.92543 28V8.49032H16.5866C18.872 8.49032 20.7487 8.8991 22.2165 9.71664C23.703 10.5156 24.7992 11.649 25.5053 13.1169C26.2299 14.5662 26.5923 16.2756 26.5923 18.2452C26.5923 20.2147 26.2299 21.9334 25.5053 23.4013C24.7992 24.8506 23.703 25.984 22.2165 26.8015C20.7487 27.6005 18.872 28 16.5866 28H9.92543ZM13.4929 24.9342H16.4194C18.0545 24.9342 19.3458 24.6741 20.2934 24.1538C21.241 23.615 21.9192 22.8532 22.328 21.8684C22.7368 20.865 22.9412 19.6573 22.9412 18.2452C22.9412 16.8516 22.7368 15.6532 22.328 14.6498C21.9192 13.6465 21.241 12.8754 20.2934 12.3365C19.3458 11.7977 18.0545 11.5283 16.4194 11.5283H13.4929V24.9342ZM37.7668 28.3345C35.8158 28.3345 34.1064 27.9071 32.6385 27.0524C31.1892 26.1977 30.0465 25.0178 29.2104 23.5128C28.3928 21.9892 27.9841 20.2333 27.9841 18.2452C27.9841 16.257 28.3928 14.5105 29.2104 13.0054C30.0465 11.4818 31.1892 10.2926 32.6385 9.43794C34.1064 8.58323 35.8158 8.15587 37.7668 8.15587C39.6992 8.15587 41.3993 8.58323 42.8672 9.43794C44.335 10.2926 45.4778 11.4818 46.2953 13.0054C47.1129 14.5105 47.5216 16.257 47.5216 18.2452C47.5216 20.2333 47.1129 21.9892 46.2953 23.5128C45.4778 25.0178 44.335 26.1977 42.8672 27.0524C41.3993 27.9071 39.6992 28.3345 37.7668 28.3345ZM37.7668 25.1293C39.6248 25.1293 41.102 24.5161 42.1983 23.2898C43.3131 22.0635 43.8705 20.3819 43.8705 18.2452C43.8705 16.1084 43.3131 14.4268 42.1983 13.2005C41.102 11.9742 39.6248 11.361 37.7668 11.361C35.9087 11.361 34.4223 11.9742 33.3074 13.2005C32.1926 14.4268 31.6352 16.1084 31.6352 18.2452C31.6352 20.3819 32.1926 22.0635 33.3074 23.2898C34.4223 24.5161 35.9087 25.1293 37.7668 25.1293Z" fill="black"/>
<path d="M9.92543 28H7.60285V30.3226H9.92543V28ZM9.92543 8.49032V6.16774H7.60285V8.49032H9.92543ZM22.2165 9.71664L21.0864 11.7457L21.1016 11.7542L21.1169 11.7624L22.2165 9.71664ZM25.5053 13.1169L23.4123 14.1237L23.42 14.1397L23.4279 14.1556L25.5053 13.1169ZM25.5053 23.4013L23.4226 22.3731L23.4173 22.3841L25.5053 23.4013ZM22.2165 26.8015L23.3269 28.8415L23.3358 28.8366L22.2165 26.8015ZM13.4929 24.9342H11.1703V27.2568H13.4929V24.9342ZM20.2934 24.1538L21.4112 26.1897L21.4264 26.1814L21.4415 26.1728L20.2934 24.1538ZM22.328 21.8684L24.4731 22.7588L24.4761 22.7518L24.4789 22.7447L22.328 21.8684ZM22.328 14.6498L20.1771 15.5261L20.1771 15.5261L22.328 14.6498ZM20.2934 12.3365L19.1454 14.3555L20.2934 12.3365ZM13.4929 11.5283V9.20568H11.1703V11.5283H13.4929ZM12.248 28V8.49032H7.60285V28H12.248ZM9.92543 10.8129H16.5866V6.16774H9.92543V10.8129ZM16.5866 10.8129C18.6128 10.8129 20.0664 11.1776 21.0864 11.7457L23.3467 7.68756C21.431 6.62058 19.1312 6.16774 16.5866 6.16774V10.8129ZM21.1169 11.7624C22.1874 12.3378 22.9272 13.1152 23.4123 14.1237L27.5983 12.1101C26.6713 10.1828 25.2186 8.69343 23.3161 7.67086L21.1169 11.7624ZM23.4279 14.1556C23.9602 15.2202 24.2697 16.5596 24.2697 18.2452H28.9149C28.9149 15.9916 28.4997 13.9122 27.5827 12.0782L23.4279 14.1556ZM24.2697 18.2452C24.2697 19.9297 23.9606 21.2836 23.4227 22.3732L27.5879 24.4294C28.4993 22.5833 28.9149 20.4997 28.9149 18.2452H24.2697ZM23.4173 22.3841C22.9327 23.3789 22.1868 24.1672 21.0972 24.7665L23.3358 28.8366C25.2192 27.8008 26.6658 26.3223 27.5933 24.4185L23.4173 22.3841ZM21.1062 24.7616C20.0812 25.3195 18.62 25.6774 16.5866 25.6774V30.3226C19.124 30.3226 21.4161 29.8816 23.3269 28.8415L21.1062 24.7616ZM16.5866 25.6774H9.92543V30.3226H16.5866V25.6774ZM13.4929 27.2568H16.4194V22.6116H13.4929V27.2568ZM16.4194 27.2568C18.2612 27.2568 19.9896 26.9702 21.4112 26.1897L19.1757 22.1179C18.7021 22.3779 17.8477 22.6116 16.4194 22.6116V27.2568ZM21.4415 26.1728C22.8267 25.3851 23.8618 24.2315 24.4731 22.7588L20.1829 20.978C19.9766 21.4749 19.6554 21.8448 19.1454 22.1348L21.4415 26.1728ZM24.4789 22.7447C25.0298 21.3927 25.2638 19.871 25.2638 18.2452H20.6186C20.6186 19.4436 20.4438 20.3374 20.1771 20.9921L24.4789 22.7447ZM25.2638 18.2452C25.2638 16.6334 25.0284 15.1223 24.4789 13.7735L20.1771 15.5261C20.4451 16.184 20.6186 17.0699 20.6186 18.2452H25.2638ZM24.4789 13.7735C23.8722 12.2843 22.8391 11.1122 21.4415 10.3175L19.1454 14.3555C19.643 14.6385 19.9662 15.0086 20.1771 15.5261L24.4789 13.7735ZM21.4415 10.3175C20.0116 9.50445 18.2709 9.20568 16.4194 9.20568V13.8508C17.838 13.8508 18.68 14.0909 19.1454 14.3555L21.4415 10.3175ZM16.4194 9.20568H13.4929V13.8508H16.4194V9.20568ZM11.1703 11.5283V24.9342H15.8155V11.5283H11.1703ZM32.6385 27.0524L31.4587 29.053L31.4698 29.0595L32.6385 27.0524ZM29.2104 23.5128L27.1638 24.6109L27.1719 24.6259L27.1801 24.6407L29.2104 23.5128ZM29.2104 13.0054L27.1742 11.888L27.1695 11.8968L29.2104 13.0054ZM32.6385 9.43794L31.4698 7.43079L31.4587 7.43734L32.6385 9.43794ZM42.8672 9.43794L44.0359 7.43082L44.0359 7.43082L42.8672 9.43794ZM46.2953 13.0054L44.2487 14.1036L44.2544 14.1141L46.2953 13.0054ZM46.2953 23.5128L48.3362 24.6214L48.3419 24.6109L46.2953 23.5128ZM42.8672 27.0524L44.0359 29.0595L44.0359 29.0595L42.8672 27.0524ZM42.1983 23.2898L40.4797 21.7275L40.4732 21.7347L40.4667 21.7419L42.1983 23.2898ZM42.1983 13.2005L40.4667 14.7484L40.4732 14.7557L40.4797 14.7629L42.1983 13.2005ZM33.3074 13.2005L35.026 14.7629L35.026 14.7629L33.3074 13.2005ZM33.3074 23.2898L35.026 21.7275L35.026 21.7275L33.3074 23.2898ZM37.7668 26.0119C36.1645 26.0119 34.8703 25.6643 33.8072 25.0453L31.4698 29.0595C33.3425 30.1499 35.4671 30.657 37.7668 30.657V26.0119ZM33.8184 25.0518C32.7338 24.4122 31.881 23.5373 31.2407 22.3848L27.1801 24.6407C28.2121 26.4983 29.6447 27.9832 31.4587 29.053L33.8184 25.0518ZM31.257 22.4146C30.6461 21.2762 30.3067 19.9079 30.3067 18.2452H25.6615C25.6615 20.5586 26.1396 22.7021 27.1638 24.6109L31.257 22.4146ZM30.3067 18.2452C30.3067 16.5816 30.6464 15.2277 31.2513 14.1141L27.1695 11.8968C26.1393 13.7932 25.6615 15.9324 25.6615 18.2452H30.3067ZM31.2465 14.1228C31.8887 12.9526 32.7409 12.074 33.8184 11.4385L31.4587 7.43734C29.6376 8.51134 28.2043 10.011 27.1743 11.888L31.2465 14.1228ZM33.8072 11.4451C34.8703 10.826 36.1645 10.4785 37.7668 10.4785V5.83329C35.4671 5.83329 33.3425 6.34041 31.4698 7.43082L33.8072 11.4451ZM37.7668 10.4785C39.3461 10.4785 40.6321 10.8241 41.6985 11.4451L44.0359 7.43082C42.1665 6.34235 40.0522 5.83329 37.7668 5.83329V10.4785ZM41.6985 11.4451C42.7884 12.0797 43.6303 12.9511 44.2487 14.1036L48.3419 11.9073C47.3252 10.0125 45.8817 8.50561 44.0359 7.43082L41.6985 11.4451ZM44.2544 14.1141C44.8593 15.2277 45.199 16.5816 45.199 18.2452H49.8442C49.8442 15.9324 49.3664 13.7932 48.3362 11.8968L44.2544 14.1141ZM45.199 18.2452C45.199 19.9079 44.8596 21.2762 44.2487 22.4146L48.3419 24.6109C49.3661 22.7021 49.8442 20.5586 49.8442 18.2452H45.199ZM44.2544 22.4041C43.6381 23.5388 42.7956 24.4064 41.6985 25.0453L44.0359 29.0595C45.8745 27.9889 47.3175 26.4968 48.3362 24.6214L44.2544 22.4041ZM41.6985 25.0453C40.6321 25.6662 39.3461 26.0119 37.7668 26.0119V30.657C40.0522 30.657 42.1665 30.148 44.0359 29.0595L41.6985 25.0453ZM37.7668 27.4519C40.1908 27.4519 42.3333 26.6237 43.9298 24.8377L40.4667 21.7419C39.8707 22.4086 39.0589 22.8067 37.7668 22.8067V27.4519ZM43.9168 24.8521C45.5224 23.086 46.1931 20.7875 46.1931 18.2452H41.5479C41.5479 19.9764 41.1038 21.041 40.4797 21.7275L43.9168 24.8521ZM46.1931 18.2452C46.1931 15.7028 45.5224 13.4043 43.9168 11.6382L40.4797 14.7629C41.1038 15.4493 41.5479 16.5139 41.5479 18.2452H46.1931ZM43.9298 11.6526C42.3333 9.86663 40.1908 9.03845 37.7668 9.03845V13.6836C39.0589 13.6836 39.8707 14.0818 40.4667 14.7484L43.9298 11.6526ZM37.7668 9.03845C35.3423 9.03845 33.1998 9.86619 31.5889 11.6382L35.026 14.7629C35.6448 14.0822 36.4751 13.6836 37.7668 13.6836V9.03845ZM31.5889 11.6382C29.9833 13.4043 29.3126 15.7028 29.3126 18.2452H33.9578C33.9578 16.5139 34.4019 15.4493 35.026 14.7629L31.5889 11.6382ZM29.3126 18.2452C29.3126 20.7875 29.9833 23.086 31.5889 24.8521L35.026 21.7275C34.4019 21.041 33.9578 19.9764 33.9578 18.2452H29.3126ZM31.5889 24.8521C33.1998 26.6241 35.3423 27.4519 37.7668 27.4519V22.8067C36.4751 22.8067 35.6448 22.4081 35.026 21.7275L31.5889 24.8521Z" fill="#F6E11F" mask="url(#path-1-outside-1_2_51)"/>
</g>
<defs>
<filter id="filter0_d_2_51" x="0.983496" y="3.85911" width="55.4801" height="38.0625" filterUnits="userSpaceOnUse" color-interpolation-filters="sRGB">
<feFlood flood-opacity="0" result="BackgroundImageFix"/>
<feColorMatrix in="SourceAlpha" type="matrix" values="0 0 0 0 0 0 0 0 0 0 0 0 0 0 0 0 0 0 127 0" result="hardAlpha"/>
<feOffset dy="4.64516"/>
<feGaussianBlur stdDeviation="4.47097"/>
<feComposite in2="hardAlpha" operator="out"/>
<feColorMatrix type="matrix" values="0 0 0 0 0 0 0 0 0 0 0 0 0 0 0 0 0 0 0.25 0"/>
<feBlend mode="normal" in2="BackgroundImageFix" result="effect1_dropShadow_2_51"/>
<feBlend mode="normal" in="SourceGraphic" in2="effect1_dropShadow_2_51" result="shape"/>
</filter>
</defs>
</svg>
