<svg width="173" height="37" viewBox="0 0 173 37" fill="none" xmlns="http://www.w3.org/2000/svg">
<path d="M30.9266 7.71912H25.7651C21.33 7.71912 18.9517 7.97237 17.0902 10.2349C15.4526 8.81506 13.408 7.9492 11.2486 7.76109C9.08933 7.57298 6.92582 8.07224 5.06729 9.18754C3.20875 10.3028 1.75033 11.9771 0.900446 13.971C0.050559 15.9649 -0.147296 18.1765 0.335158 20.2896C0.817612 22.4027 1.95568 24.3092 3.58672 25.7367C5.21777 27.1642 7.2583 28.0396 9.41671 28.2378C11.5751 28.4359 13.7409 27.9467 15.6047 26.8401C17.4684 25.7335 18.9346 24.0661 19.7937 22.0761C23.8844 21.7792 26.7228 19.3328 27.6163 15.426C27.6163 15.426 24.5323 16.178 21.9213 15.426C27.0867 14.4271 30.0627 11.5218 30.9266 7.71912ZM7.28535 17.9984C7.2833 17.4472 7.4295 16.9056 7.70862 16.4304C7.98774 15.9551 8.38952 15.5637 8.87187 15.297C9.35422 15.0303 9.89941 14.8982 10.4503 14.9146C11.0012 14.931 11.5376 15.0952 12.0033 15.39C12.1401 14.472 12.6071 13.6355 13.3166 13.0372C14.0261 12.4389 14.9295 12.12 15.8574 12.1401H15.8677C14.685 14.4258 14.0589 16.4493 13.2991 18.906C13.0824 19.6097 12.6203 20.2122 11.9969 20.6041C11.3735 20.996 10.6302 21.1511 9.90213 21.0414C9.17403 20.9317 8.50947 20.5643 8.02927 20.0061C7.54906 19.4479 7.28509 18.736 7.28535 17.9997V17.9984ZM10.3527 7.71912C8.31962 7.71912 6.33223 8.32198 4.64182 9.45148C2.95141 10.581 1.63389 12.1864 0.855876 14.0647C0.0778638 15.943 -0.1257 18.0098 0.270928 20.0037C0.667555 21.9977 1.64656 23.8293 3.08414 25.2669C4.52172 26.7045 6.3533 27.6835 8.34728 28.0801C10.3413 28.4767 12.4081 28.2732 14.2864 27.4952C16.1647 26.7171 17.7701 25.3996 18.8995 23.7092C20.029 22.0188 20.6319 20.0314 20.6319 17.9984C20.6319 15.2721 19.5489 12.6576 17.6212 10.7298C15.6935 8.80211 13.0789 7.71912 10.3527 7.71912ZM10.3527 21.0811C9.74259 21.0811 9.14622 20.9002 8.639 20.5612C8.13178 20.2222 7.73649 19.7404 7.50315 19.1767C7.2698 18.613 7.20887 17.9928 7.32808 17.3945C7.44729 16.7962 7.74127 16.2466 8.17284 15.8154C8.6044 15.3842 9.15416 15.0907 9.75258 14.972C10.351 14.8533 10.9712 14.9147 11.5347 15.1485C12.0981 15.3824 12.5796 15.7781 12.9182 16.2856C13.2568 16.7931 13.4372 17.3896 13.4367 17.9997C13.437 18.4047 13.3575 18.8058 13.2026 19.1801C13.0477 19.5543 12.8205 19.8943 12.5341 20.1807C12.2476 20.467 11.9075 20.6941 11.5332 20.8488C11.1589 21.0035 10.7577 21.0816 10.3527 21.0811Z" fill="#0C8CCD"/>
<g filter="url(#filter0_d_2_32)">
<circle cx="10.3582" cy="17.9999" r="3.06314" fill="white"/>
</g>
<path d="M57.3357 17.8636C57.3357 20.4015 56.8546 22.5606 55.8925 24.3409C54.938 26.1212 53.6349 27.4811 51.9834 28.4205C50.3395 29.3523 48.491 29.8182 46.438 29.8182C44.3698 29.8182 42.5137 29.3485 40.8698 28.4091C39.2258 27.4697 37.9266 26.1098 36.972 24.3295C36.0175 22.5492 35.5402 20.3939 35.5402 17.8636C35.5402 15.3258 36.0175 13.1667 36.972 11.3864C37.9266 9.60606 39.2258 8.25 40.8698 7.31818C42.5137 6.37879 44.3698 5.90909 46.438 5.90909C48.491 5.90909 50.3395 6.37879 51.9834 7.31818C53.6349 8.25 54.938 9.60606 55.8925 11.3864C56.8546 13.1667 57.3357 15.3258 57.3357 17.8636ZM52.347 17.8636C52.347 16.2197 52.1008 14.8333 51.6084 13.7045C51.1236 12.5758 50.438 11.7197 49.5516 11.1364C48.6652 10.553 47.6273 10.2614 46.438 10.2614C45.2486 10.2614 44.2107 10.553 43.3243 11.1364C42.438 11.7197 41.7486 12.5758 41.2561 13.7045C40.7713 14.8333 40.5289 16.2197 40.5289 17.8636C40.5289 19.5076 40.7713 20.8939 41.2561 22.0227C41.7486 23.1515 42.438 24.0076 43.3243 24.5909C44.2107 25.1742 45.2486 25.4659 46.438 25.4659C47.6273 25.4659 48.6652 25.1742 49.5516 24.5909C50.438 24.0076 51.1236 23.1515 51.6084 22.0227C52.1008 20.8939 52.347 19.5076 52.347 17.8636ZM64.4506 19.4091V29.5H59.6097V12.0455H64.2233V15.125H64.4278C64.8142 14.1098 65.4619 13.3068 66.371 12.7159C67.2801 12.1174 68.3824 11.8182 69.6778 11.8182C70.89 11.8182 71.9468 12.0833 72.8483 12.6136C73.7498 13.1439 74.4506 13.9015 74.9506 14.8864C75.4506 15.8636 75.7006 17.0303 75.7006 18.3864V29.5H70.8597V19.25C70.8672 18.1818 70.5945 17.3485 70.0415 16.75C69.4884 16.1439 68.7271 15.8409 67.7574 15.8409C67.1059 15.8409 66.5301 15.9811 66.0301 16.2614C65.5377 16.5417 65.1513 16.9508 64.871 17.4886C64.5983 18.0189 64.4581 18.6591 64.4506 19.4091ZM83.0768 6.22727V29.5H78.2359V6.22727H83.0768ZM88.6633 36.0455C88.0497 36.0455 87.4739 35.9962 86.936 35.8977C86.4057 35.8068 85.9663 35.6894 85.6178 35.5455L86.7087 31.9318C87.2769 32.1061 87.7883 32.2008 88.2428 32.2159C88.705 32.2311 89.1027 32.125 89.436 31.8977C89.7769 31.6705 90.0534 31.2841 90.2656 30.7386L90.5497 30L84.2883 12.0455H89.3792L92.9928 24.8636H93.1747L96.8224 12.0455H101.947L95.1633 31.3864C94.8375 32.3258 94.3944 33.1439 93.8337 33.8409C93.2807 34.5455 92.58 35.0871 91.7315 35.4659C90.883 35.8523 89.8603 36.0455 88.6633 36.0455Z" fill="#12AFEC"/>
<path d="M103.236 29.5V6.22727H118.645V10.2841H108.156V15.8295H117.622V19.8864H108.156V29.5H103.236ZM125.342 29.8295C124.228 29.8295 123.236 29.6364 122.365 29.25C121.493 28.8561 120.804 28.2765 120.296 27.5114C119.796 26.7386 119.546 25.7765 119.546 24.625C119.546 23.6553 119.725 22.8409 120.081 22.1818C120.437 21.5227 120.921 20.9924 121.535 20.5909C122.149 20.1894 122.846 19.8864 123.626 19.6818C124.414 19.4773 125.24 19.3333 126.103 19.25C127.118 19.1439 127.937 19.0455 128.558 18.9545C129.179 18.8561 129.63 18.7121 129.91 18.5227C130.19 18.3333 130.331 18.053 130.331 17.6818V17.6136C130.331 16.8939 130.103 16.3371 129.649 15.9432C129.202 15.5492 128.565 15.3523 127.74 15.3523C126.868 15.3523 126.175 15.5455 125.66 15.9318C125.145 16.3106 124.804 16.7879 124.637 17.3636L120.16 17C120.387 15.9394 120.834 15.0227 121.501 14.25C122.168 13.4697 123.028 12.8712 124.081 12.4545C125.141 12.0303 126.368 11.8182 127.762 11.8182C128.732 11.8182 129.66 11.9318 130.546 12.1591C131.44 12.3864 132.232 12.7386 132.921 13.2159C133.618 13.6932 134.168 14.3068 134.569 15.0568C134.971 15.7992 135.171 16.6894 135.171 17.7273V29.5H130.581V27.0795H130.444C130.164 27.625 129.789 28.1061 129.319 28.5227C128.85 28.9318 128.285 29.2538 127.626 29.4886C126.967 29.7159 126.206 29.8295 125.342 29.8295ZM126.728 26.4886C127.44 26.4886 128.069 26.3485 128.615 26.0682C129.16 25.7803 129.588 25.3939 129.899 24.9091C130.209 24.4242 130.365 23.875 130.365 23.2614V21.4091C130.213 21.5076 130.005 21.5985 129.74 21.6818C129.482 21.7576 129.19 21.8295 128.865 21.8977C128.539 21.9583 128.213 22.0152 127.887 22.0682C127.562 22.1136 127.266 22.1553 127.001 22.1932C126.433 22.2765 125.937 22.4091 125.512 22.5909C125.088 22.7727 124.759 23.0189 124.524 23.3295C124.289 23.6326 124.171 24.0114 124.171 24.4659C124.171 25.125 124.41 25.6288 124.887 25.9773C125.372 26.3182 125.986 26.4886 126.728 26.4886ZM142.488 19.4091V29.5H137.647V12.0455H142.261V15.125H142.465C142.852 14.1098 143.499 13.3068 144.409 12.7159C145.318 12.1174 146.42 11.8182 147.715 11.8182C148.927 11.8182 149.984 12.0833 150.886 12.6136C151.787 13.1439 152.488 13.9015 152.988 14.8864C153.488 15.8636 153.738 17.0303 153.738 18.3864V29.5H148.897V19.25C148.905 18.1818 148.632 17.3485 148.079 16.75C147.526 16.1439 146.765 15.8409 145.795 15.8409C145.143 15.8409 144.568 15.9811 144.068 16.2614C143.575 16.5417 143.189 16.9508 142.909 17.4886C142.636 18.0189 142.496 18.6591 142.488 19.4091ZM170.796 17.0227L166.364 17.2955C166.289 16.9167 166.126 16.5758 165.876 16.2727C165.626 15.9621 165.296 15.7159 164.887 15.5341C164.486 15.3447 164.004 15.25 163.444 15.25C162.694 15.25 162.061 15.4091 161.546 15.7273C161.031 16.0379 160.773 16.4545 160.773 16.9773C160.773 17.3939 160.94 17.7462 161.273 18.0341C161.607 18.322 162.179 18.553 162.989 18.7273L166.148 19.3636C167.845 19.7121 169.111 20.2727 169.944 21.0455C170.777 21.8182 171.194 22.8333 171.194 24.0909C171.194 25.2348 170.857 26.2386 170.183 27.1023C169.516 27.9659 168.599 28.6402 167.433 29.125C166.273 29.6023 164.936 29.8409 163.421 29.8409C161.111 29.8409 159.27 29.3598 157.898 28.3977C156.535 27.428 155.736 26.1098 155.501 24.4432L160.262 24.1932C160.406 24.8977 160.754 25.4356 161.308 25.8068C161.861 26.1705 162.569 26.3523 163.432 26.3523C164.281 26.3523 164.963 26.1894 165.478 25.8636C166.001 25.5303 166.266 25.1023 166.273 24.5795C166.266 24.1402 166.08 23.7803 165.717 23.5C165.353 23.2121 164.792 22.9924 164.035 22.8409L161.012 22.2386C159.308 21.8977 158.039 21.3068 157.205 20.4659C156.379 19.625 155.967 18.553 155.967 17.25C155.967 16.1288 156.27 15.1629 156.876 14.3523C157.489 13.5417 158.349 12.9167 159.455 12.4773C160.569 12.0379 161.872 11.8182 163.364 11.8182C165.569 11.8182 167.304 12.2841 168.569 13.2159C169.842 14.1477 170.584 15.4167 170.796 17.0227Z" fill="#0C8CCD"/>
<defs>
<filter id="filter0_d_2_32" x="0.29509" y="7.93677" width="20.1263" height="20.1263" filterUnits="userSpaceOnUse" color-interpolation-filters="sRGB">
<feFlood flood-opacity="0" result="BackgroundImageFix"/>
<feColorMatrix in="SourceAlpha" type="matrix" values="0 0 0 0 0 0 0 0 0 0 0 0 0 0 0 0 0 0 127 0" result="hardAlpha"/>
<feMorphology radius="7" operator="dilate" in="SourceAlpha" result="effect1_dropShadow_2_32"/>
<feOffset/>
<feComposite in2="hardAlpha" operator="out"/>
<feColorMatrix type="matrix" values="0 0 0 0 0.0705882 0 0 0 0 0.686275 0 0 0 0 0.92549 0 0 0 1 0"/>
<feBlend mode="normal" in2="BackgroundImageFix" result="effect1_dropShadow_2_32"/>
<feBlend mode="normal" in="SourceGraphic" in2="effect1_dropShadow_2_32" result="shape"/>
</filter>
</defs>
</svg>
