<svg width="31" height="22" viewBox="0 0 31 22" fill="none" xmlns="http://www.w3.org/2000/svg">
<path d="M30.9266 0.719116H25.7651C21.33 0.719116 18.9517 0.97237 17.0902 3.23494C15.4526 1.81506 13.408 0.9492 11.2486 0.761088C9.08933 0.572976 6.92582 1.07224 5.06729 2.18754C3.20875 3.30283 1.75033 4.97708 0.900446 6.97099C0.050559 8.96491 -0.147296 11.1765 0.335158 13.2896C0.817612 15.4027 1.95568 17.3092 3.58672 18.7367C5.21777 20.1642 7.2583 21.0396 9.41671 21.2378C11.5751 21.4359 13.7409 20.9467 15.6047 19.8401C17.4684 18.7335 18.9346 17.0661 19.7937 15.0761C23.8844 14.7792 26.7228 12.3328 27.6163 8.42598C27.6163 8.42598 24.5323 9.17803 21.9213 8.42598C27.0867 7.42711 30.0627 4.52177 30.9266 0.719116ZM7.28535 10.9984C7.2833 10.4472 7.4295 9.90564 7.70862 9.43038C7.98774 8.95512 8.38952 8.56365 8.87187 8.29698C9.35422 8.0303 9.89941 7.89823 10.4503 7.91459C11.0012 7.93096 11.5376 8.09515 12.0033 8.38999C12.1401 7.47203 12.6071 6.6355 13.3166 6.03721C14.0261 5.43893 14.9295 5.11996 15.8574 5.14012H15.8677C14.685 7.42583 14.0589 9.44928 13.2991 11.906C13.0824 12.6097 12.6203 13.2122 11.9969 13.6041C11.3735 13.996 10.6302 14.1511 9.90213 14.0414C9.17403 13.9317 8.50947 13.5643 8.02927 13.0061C7.54906 12.4479 7.28509 11.736 7.28535 10.9997V10.9984ZM10.3527 0.719116C8.31962 0.719116 6.33223 1.32198 4.64182 2.45148C2.95141 3.58098 1.63389 5.18638 0.855876 7.06467C0.0778638 8.94296 -0.1257 11.0098 0.270928 13.0037C0.667555 14.9977 1.64656 16.8293 3.08414 18.2669C4.52172 19.7045 6.3533 20.6835 8.34728 21.0801C10.3413 21.4767 12.4081 21.2732 14.2864 20.4952C16.1647 19.7171 17.7701 18.3996 18.8995 16.7092C20.029 15.0188 20.6319 13.0314 20.6319 10.9984C20.6319 8.27214 19.5489 5.65757 17.6212 3.72984C15.6935 1.80211 13.0789 0.719116 10.3527 0.719116ZM10.3527 14.0811C9.74259 14.0811 9.14622 13.9002 8.639 13.5612C8.13178 13.2222 7.73649 12.7404 7.50315 12.1767C7.2698 11.613 7.20887 10.9928 7.32808 10.3945C7.44729 9.79616 7.74127 9.24664 8.17284 8.81543C8.6044 8.38422 9.15416 8.0907 9.75258 7.97199C10.351 7.85329 10.9712 7.91473 11.5347 8.14855C12.0981 8.38236 12.5796 8.77805 12.9182 9.28555C13.2568 9.79306 13.4372 10.3896 13.4367 10.9997C13.437 11.4047 13.3575 11.8058 13.2026 12.1801C13.0477 12.5543 12.8205 12.8943 12.5341 13.1807C12.2476 13.467 11.9075 13.6941 11.5332 13.8488C11.1589 14.0035 10.7577 14.0816 10.3527 14.0811Z" fill="#0C8CCD"/>
<g filter="url(#filter0_d_2_31)">
<circle cx="10.3582" cy="10.9999" r="3.06314" fill="white"/>
</g>
<defs>
<filter id="filter0_d_2_31" x="0.29509" y="0.936768" width="20.1263" height="20.1263" filterUnits="userSpaceOnUse" color-interpolation-filters="sRGB">
<feFlood flood-opacity="0" result="BackgroundImageFix"/>
<feColorMatrix in="SourceAlpha" type="matrix" values="0 0 0 0 0 0 0 0 0 0 0 0 0 0 0 0 0 0 127 0" result="hardAlpha"/>
<feMorphology radius="7" operator="dilate" in="SourceAlpha" result="effect1_dropShadow_2_31"/>
<feOffset/>
<feComposite in2="hardAlpha" operator="out"/>
<feColorMatrix type="matrix" values="0 0 0 0 0.0705882 0 0 0 0 0.686275 0 0 0 0 0.92549 0 0 0 1 0"/>
<feBlend mode="normal" in2="BackgroundImageFix" result="effect1_dropShadow_2_31"/>
<feBlend mode="normal" in="SourceGraphic" in2="effect1_dropShadow_2_31" result="shape"/>
</filter>
</defs>
</svg>
