<svg width="599" height="122" viewBox="0 0 599 122" fill="none" xmlns="http://www.w3.org/2000/svg">
<path d="M106.889 23.4248H89.0077C73.6423 23.4248 65.4029 24.3022 58.9539 32.1407C53.2803 27.2217 46.1969 24.2219 38.7161 23.5702C31.2352 22.9185 23.7398 24.6482 17.301 28.5121C10.8622 32.376 5.80962 38.1763 2.86523 45.0841C-0.0791663 51.992 -0.764624 59.6538 0.906814 66.9745C2.57825 74.2953 6.52104 80.9004 12.1717 85.8459C17.8224 90.7913 24.8917 93.8241 32.3694 94.5106C39.8471 95.1972 47.3505 93.5024 53.8072 89.6686C60.264 85.8347 65.3436 80.058 68.3201 73.164C82.4919 72.1352 92.3257 63.6597 95.421 50.1249C95.421 50.1249 84.7365 52.7303 75.691 50.1249C93.5861 46.6643 103.896 36.5989 106.889 23.4248ZM24.9854 59.0368C24.9783 57.1273 25.4848 55.2511 26.4518 53.6045C27.4188 51.958 28.8107 50.6018 30.4818 49.6779C32.1529 48.754 34.0417 48.2965 35.9503 48.3532C37.859 48.4099 39.7172 48.9787 41.3306 50.0002C41.8046 46.82 43.4223 43.9218 45.8804 41.8491C48.3385 39.7764 51.4682 38.6713 54.6828 38.7412H54.7184C50.621 46.6599 48.4521 53.67 45.8199 62.1811C45.0689 64.619 43.4681 66.7065 41.3084 68.0641C39.1487 69.4218 36.5736 69.9594 34.0511 69.5792C31.5286 69.1991 29.2263 67.9264 27.5627 65.9926C25.899 64.0588 24.9845 61.5922 24.9854 59.0412V59.0368ZM35.612 23.4248C28.5686 23.4248 21.6834 25.5134 15.827 29.4265C9.97067 33.3396 5.4062 38.9014 2.71081 45.4087C0.0154299 51.9159 -0.689806 59.0763 0.68429 65.9843C2.05839 72.8924 5.4501 79.2378 10.4305 84.2182C15.4109 89.1986 21.7564 92.5904 28.6644 93.9644C35.5725 95.3385 42.7328 94.6333 49.2401 91.9379C55.7473 89.2425 61.3091 84.6781 65.2222 78.8217C69.1353 72.9654 71.2239 66.0801 71.2239 59.0368C71.2239 49.5919 67.472 40.5338 60.7934 33.8553C54.1149 27.1768 45.0569 23.4248 35.612 23.4248ZM35.612 69.7168C33.4984 69.7168 31.4323 69.0899 29.6751 67.9155C27.9178 66.7411 26.5484 65.0719 25.74 63.119C24.9315 61.1662 24.7205 59.0174 25.1335 56.9446C25.5464 54.8718 26.5649 52.968 28.0601 51.4741C29.5552 49.9802 31.4598 48.9633 33.533 48.552C35.6062 48.1408 37.7547 48.3536 39.7069 49.1637C41.6591 49.9737 43.3272 51.3446 44.5001 53.1028C45.6731 54.861 46.2982 56.9276 46.2965 59.0412C46.2976 60.4444 46.022 61.8341 45.4855 63.1307C44.9489 64.4273 44.1618 65.6053 43.1694 66.5973C42.177 67.5893 40.9986 68.3759 39.7018 68.9119C38.405 69.448 37.0152 69.7185 35.612 69.7168Z" fill="#0C8CCD"/>
<g filter="url(#filter0_d_16_34)">
<circle cx="35.6313" cy="59.0422" r="10.6121" fill="white"/>
</g>
<path d="M198.382 58.7287C198.382 67.5211 196.716 75.0012 193.383 81.1689C190.076 87.3367 185.561 92.0478 179.84 95.3023C174.144 98.5306 167.74 100.145 160.628 100.145C153.463 100.145 147.032 98.5174 141.337 95.263C135.642 92.0085 131.14 87.2973 127.834 81.1296C124.527 74.9618 122.873 67.4949 122.873 58.7287C122.873 49.9364 124.527 42.4563 127.834 36.2886C131.14 30.1208 135.642 25.4228 141.337 22.1945C147.032 18.94 153.463 17.3128 160.628 17.3128C167.74 17.3128 174.144 18.94 179.84 22.1945C185.561 25.4228 190.076 30.1208 193.383 36.2886C196.716 42.4563 198.382 49.9364 198.382 58.7287ZM181.099 58.7287C181.099 53.0334 180.246 48.2304 178.54 44.3198C176.861 40.4091 174.486 37.4434 171.415 35.4224C168.344 33.4015 164.748 32.391 160.628 32.391C156.507 32.391 152.911 33.4015 149.841 35.4224C146.77 37.4434 144.382 40.4091 142.676 44.3198C140.996 48.2304 140.156 53.0334 140.156 58.7287C140.156 64.4241 140.996 69.2271 142.676 73.1377C144.382 77.0483 146.77 80.0141 149.841 82.0351C152.911 84.056 156.507 85.0664 160.628 85.0664C164.748 85.0664 168.344 84.056 171.415 82.0351C174.486 80.0141 176.861 77.0483 178.54 73.1377C180.246 69.2271 181.099 64.4241 181.099 58.7287ZM223.032 64.0829V99.0424H206.26V38.5719H222.244V49.2409H222.953C224.291 45.7239 226.535 42.9419 229.685 40.8947C232.834 38.8213 236.653 37.7846 241.141 37.7846C245.34 37.7846 249.002 38.7032 252.125 40.5404C255.248 42.3776 257.676 45.0022 259.408 48.4141C261.14 51.7998 262.007 55.8417 262.007 60.5397V99.0424H245.236V63.5317C245.262 59.8311 244.317 56.944 242.401 54.8706C240.485 52.7709 237.847 51.7211 234.488 51.7211C232.231 51.7211 230.236 52.2067 228.504 53.1777C226.798 54.1488 225.459 55.5661 224.488 57.4296C223.543 59.2668 223.058 61.4846 223.032 64.0829ZM287.561 18.4151V99.0424H270.79V18.4151H287.561ZM306.915 121.719C304.789 121.719 302.795 121.548 300.931 121.207C299.094 120.892 297.572 120.485 296.364 119.987L300.144 107.467C302.112 108.071 303.884 108.399 305.459 108.451C307.06 108.504 308.438 108.137 309.592 107.349C310.773 106.562 311.731 105.223 312.466 103.334L313.451 100.775L291.758 38.5719H309.396L321.915 82.9799H322.545L335.182 38.5719H352.937L329.434 105.578C328.306 108.832 326.77 111.667 324.828 114.081C322.912 116.522 320.484 118.399 317.545 119.711C314.605 121.049 311.062 121.719 306.915 121.719Z" fill="#12AFEC"/>
<path d="M357.4 99.0424V18.4151H410.784V32.4698H374.447V51.6817H407.241V65.7364H374.447V99.0424H357.4ZM433.987 100.184C430.129 100.184 426.69 99.5148 423.672 98.1762C420.654 96.8115 418.265 94.8037 416.507 92.1528C414.775 89.4757 413.909 86.1425 413.909 82.1532C413.909 78.7937 414.525 75.9723 415.759 73.6889C416.992 71.4055 418.672 69.5683 420.798 68.1772C422.924 66.7862 425.339 65.7364 428.042 65.0277C430.772 64.3191 433.632 63.8204 436.624 63.5317C440.141 63.1643 442.976 62.8231 445.128 62.5081C447.28 62.167 448.842 61.6683 449.813 61.0121C450.784 60.356 451.27 59.3849 451.27 58.0988V57.8626C451.27 55.3693 450.482 53.4402 448.907 52.0754C447.359 50.7106 445.154 50.0282 442.293 50.0282C439.275 50.0282 436.874 50.6975 435.089 52.0361C433.304 53.3483 432.123 55.0018 431.546 56.9965L416.035 55.7367C416.822 52.0623 418.37 48.8866 420.68 46.2095C422.99 43.5062 425.969 41.4327 429.617 39.9892C433.291 38.5194 437.543 37.7846 442.372 37.7846C445.732 37.7846 448.947 38.1783 452.018 38.9656C455.115 39.753 457.857 40.9734 460.246 42.6269C462.66 44.2804 464.563 46.4063 465.954 49.0047C467.345 51.5768 468.041 54.6606 468.041 58.2563V99.0424H452.136V90.6568H451.663C450.692 92.5465 449.393 94.2131 447.766 95.6566C446.138 97.0739 444.183 98.1894 441.9 99.003C439.616 99.7904 436.979 100.184 433.987 100.184ZM438.79 88.6096C441.257 88.6096 443.435 88.1241 445.325 87.153C447.215 86.1556 448.697 84.8171 449.774 83.1374C450.85 81.4576 451.388 79.5548 451.388 77.4289V71.0118C450.863 71.353 450.141 71.6679 449.222 71.9566C448.33 72.2191 447.32 72.4684 446.191 72.7047C445.062 72.9146 443.934 73.1115 442.805 73.2952C441.677 73.4527 440.653 73.597 439.735 73.7282C437.766 74.0169 436.047 74.4762 434.577 75.1062C433.107 75.7361 431.966 76.589 431.152 77.6651C430.338 78.715 429.932 80.0272 429.932 81.602C429.932 83.8854 430.758 85.6307 432.412 86.838C434.092 88.0191 436.218 88.6096 438.79 88.6096ZM493.389 64.0829V99.0424H476.618V38.5719H492.601V49.2409H493.31C494.648 45.7239 496.892 42.9419 500.042 40.8947C503.191 38.8213 507.01 37.7846 511.498 37.7846C515.698 37.7846 519.359 38.7032 522.482 40.5404C525.605 42.3776 528.033 45.0022 529.765 48.4141C531.498 51.7998 532.364 55.8417 532.364 60.5397V99.0424H515.593V63.5317C515.619 59.8311 514.674 56.944 512.758 54.8706C510.842 52.7709 508.204 51.7211 504.845 51.7211C502.588 51.7211 500.593 52.2067 498.861 53.1777C497.155 54.1488 495.816 55.5661 494.845 57.4296C493.9 59.2668 493.415 61.4846 493.389 64.0829ZM591.461 55.8155L576.107 56.7603C575.844 55.448 575.28 54.267 574.414 53.2171C573.548 52.141 572.406 51.288 570.989 50.6581C569.598 50.002 567.931 49.6739 565.989 49.6739C563.391 49.6739 561.199 50.2251 559.414 51.3274C557.63 52.4035 556.737 53.847 556.737 55.658C556.737 57.1015 557.315 58.3219 558.47 59.3193C559.624 60.3166 561.606 61.1171 564.414 61.7208L575.359 63.9254C581.238 65.1327 585.621 67.0749 588.508 69.752C591.395 72.4291 592.838 75.946 592.838 80.3028C592.838 84.2659 591.671 87.7435 589.335 90.7355C587.025 93.7276 583.849 96.0635 579.807 97.7432C575.792 99.3967 571.159 100.223 565.91 100.223C557.905 100.223 551.527 98.5568 546.777 95.2236C542.053 91.8641 539.284 87.2973 538.47 81.5233L554.966 80.6571C555.464 83.098 556.672 84.9615 558.588 86.2475C560.504 87.5073 562.958 88.1372 565.95 88.1372C568.889 88.1372 571.251 87.5729 573.036 86.4444C574.847 85.2895 575.766 83.8066 575.792 81.9957C575.766 80.4734 575.122 79.2267 573.863 78.2557C572.603 77.2583 570.661 76.4972 568.036 75.9723L557.564 73.8857C551.659 72.7047 547.263 70.6575 544.375 67.7442C541.515 64.8309 540.084 61.1171 540.084 56.6028C540.084 52.7184 541.134 49.3721 543.234 46.5638C545.36 43.7555 548.339 41.5902 552.171 40.068C556.029 38.5457 560.543 37.7846 565.713 37.7846C573.351 37.7846 579.361 39.3987 583.744 42.6269C588.154 45.8552 590.726 50.2513 591.461 55.8155Z" fill="#0C8CCD"/>
<defs>
<filter id="filter0_d_16_34" x="0.768" y="24.1789" width="69.7265" height="69.7266" filterUnits="userSpaceOnUse" color-interpolation-filters="sRGB">
<feFlood flood-opacity="0" result="BackgroundImageFix"/>
<feColorMatrix in="SourceAlpha" type="matrix" values="0 0 0 0 0 0 0 0 0 0 0 0 0 0 0 0 0 0 127 0" result="hardAlpha"/>
<feMorphology radius="24.2512" operator="dilate" in="SourceAlpha" result="effect1_dropShadow_16_34"/>
<feOffset/>
<feComposite in2="hardAlpha" operator="out"/>
<feColorMatrix type="matrix" values="0 0 0 0 0.0705882 0 0 0 0 0.686275 0 0 0 0 0.92549 0 0 0 1 0"/>
<feBlend mode="normal" in2="BackgroundImageFix" result="effect1_dropShadow_16_34"/>
<feBlend mode="normal" in="SourceGraphic" in2="effect1_dropShadow_16_34" result="shape"/>
</filter>
</defs>
</svg>
