<svg width="64" height="64" viewBox="0 0 64 64" fill="none" xmlns="http://www.w3.org/2000/svg">
<path fill-rule="evenodd" clip-rule="evenodd" d="M2.30151 2.30152C0.348889 4.25414 0.348891 7.41996 2.30151 9.37258L24.9289 32L2.30151 54.6274C0.348888 56.58 0.348887 59.7459 2.30151 61.6985C4.25413 63.6511 7.41996 63.6511 9.37258 61.6985L32 39.0711L54.6274 61.6985C56.58 63.6511 59.7459 63.6511 61.6985 61.6985C63.6511 59.7459 63.6511 56.58 61.6985 54.6274L39.0711 32L61.6985 9.37258C63.6511 7.41996 63.6511 4.25414 61.6985 2.30152C59.7459 0.348893 56.58 0.348896 54.6274 2.30152L32 24.9289L9.37258 2.30152C7.41996 0.348894 4.25413 0.348893 2.30151 2.30152Z" fill="white"/>
</svg>
