<svg width="47" height="46" viewBox="0 0 47 46" fill="none" xmlns="http://www.w3.org/2000/svg">
<rect width="46.4435" height="46" rx="22.7238" fill="#373737" fill-opacity="0.5"/>
<rect x="0.5" y="0.5" width="45.4435" height="45" rx="22.2238" stroke="white" stroke-opacity="0.9"/>
<path d="M17.875 19.7V20.2H17.375C16.6089 20.2 15.8764 20.4977 15.3381 21.0241C14.8001 21.5501 14.5 22.2611 14.5 23V30.7C14.5 31.4389 14.8001 32.1499 15.3381 32.6759C15.8764 33.2023 16.6089 33.5 17.375 33.5H28.625C29.3911 33.5 30.1236 33.2023 30.6619 32.6759C31.1999 32.1499 31.5 31.4389 31.5 30.7V23C31.5 22.2611 31.1999 21.5501 30.6619 21.0241C30.1236 20.4977 29.3911 20.2 28.625 20.2H28.125V19.7V17.5C28.125 16.1776 27.5878 14.907 26.6279 13.9684C25.6676 13.0295 24.3628 12.5 23 12.5C21.6372 12.5 20.3324 13.0295 19.3721 13.9684C18.4122 14.907 17.875 16.1776 17.875 17.5V19.7ZM19.625 20.2H19.125V19.7V17.5C19.125 16.4885 19.5361 15.5208 20.264 14.809C20.9915 14.0977 21.9759 13.7 23 13.7C24.0241 13.7 25.0085 14.0977 25.736 14.809C26.4639 15.5208 26.875 16.4885 26.875 17.5V19.7V20.2H26.375H19.625ZM16.2299 31.8353C15.924 31.5362 15.75 31.128 15.75 30.7V23C15.75 22.572 15.924 22.1638 16.2299 21.8647C16.5355 21.5659 16.9476 21.4 17.375 21.4H28.625C29.0524 21.4 29.4645 21.5659 29.7701 21.8647C30.076 22.1638 30.25 22.572 30.25 23V30.7C30.25 31.128 30.076 31.5362 29.7701 31.8353C29.4645 32.1341 29.0524 32.3 28.625 32.3H17.375C16.9476 32.3 16.5355 32.1341 16.2299 31.8353Z" fill="white" fill-opacity="0.5" stroke="white"/>
</svg>
