<svg width="13" height="18" viewBox="0 0 13 18" fill="none" xmlns="http://www.w3.org/2000/svg">
<path d="M1.70332 9.19042L6.50632 11.7011L11.2967 9.19042L6.50632 16.3458L1.70332 9.19042Z" fill="#FE3707"/>
<path d="M7.50632 1.03076C7.50632 0.478477 7.05861 0.0307617 6.50632 0.0307617C5.95404 0.0307617 5.50632 0.478477 5.50632 1.03076H7.50632ZM6.50632 11.7011L6.04306 12.5873L6.50693 12.8298L6.97054 12.5868L6.50632 11.7011ZM1.70332 9.19042L2.16658 8.3042C1.76125 8.09231 1.26381 8.18244 0.958583 8.52306C0.653352 8.86369 0.618123 9.36799 0.87303 9.74775L1.70332 9.19042ZM6.50632 16.3458L5.67603 16.9032C5.86187 17.18 6.17348 17.346 6.50693 17.3458C6.84038 17.3456 7.15179 17.1792 7.33729 16.9021L6.50632 16.3458ZM11.2967 9.19042L12.1277 9.74673C12.3821 9.36669 12.3463 8.86246 12.0407 8.52221C11.735 8.18195 11.2375 8.09239 10.8325 8.3047L11.2967 9.19042ZM5.50632 1.03076V11.7011H7.50632V1.03076H5.50632ZM6.96958 10.8149L2.16658 8.3042L1.24007 10.0766L6.04306 12.5873L6.96958 10.8149ZM0.87303 9.74775L5.67603 16.9032L7.33661 15.7885L2.53362 8.63309L0.87303 9.74775ZM7.33729 16.9021L12.1277 9.74673L10.4657 8.6341L5.67535 15.7895L7.33729 16.9021ZM10.8325 8.3047L6.0421 10.8154L6.97054 12.5868L11.7609 10.0761L10.8325 8.3047Z" fill="#FE3707"/>
</svg>
